<svg width="36" height="39" viewBox="0 0 36 39" fill="none" xmlns="http://www.w3.org/2000/svg">
<path d="M0.00537109 38.8399L0.210502 38.9562L5.48598 32.1135C5.63181 31.906 5.86983 31.7679 6.14184 31.7274C13.9095 30.6168 21.1404 21.1774 21.447 20.7734L22.0439 19.9833L21.1396 20.4072C20.6525 20.632 20.0896 20.6632 19.6067 20.6222C22.687 19.7275 25.4676 16.4584 28.4556 10.2702L28.9444 9.26509L28.07 9.97615C27.5772 10.3865 26.8798 10.5201 26.3576 10.5572C27.1714 9.91925 28.593 8.61687 29.5715 6.66541C31.3455 3.11867 33.7447 1.56235 33.7712 1.54221L35.05 0.727173L33.5736 1.09572C25.9433 3.01345 18.0688 4.99469 15.2757 10.3402C15.3278 9.83249 15.4569 9.38353 15.657 8.99893L16.313 7.75226L15.2674 8.70859C11.6705 11.9955 8.0567 15.9761 8.13285 20.7617C7.90363 20.3585 7.73783 19.7905 7.62669 19.0375L7.53056 18.3714L7.17006 18.9432C4.28444 23.4742 4.02217 29.8228 4.00282 31.05C4.0011 31.1946 3.96233 31.3373 3.89081 31.4705L0.0094655 38.8419L0.00537109 38.8399ZM30.3851 3.34233C25.9522 6.04958 22.0988 9.57167 18.6095 13.3748C14.0963 18.2858 10.1144 23.6552 6.37503 29.182C11.4753 19.3751 20.0533 7.88381 30.3851 3.34233Z" fill="black" fill-opacity="0.898"/>
</svg>
