<svg width="16" height="16" viewBox="0 0 16 16" fill="none" xmlns="http://www.w3.org/2000/svg">
<path d="M4 2.66663H11.3333C12.44 2.66663 13.3333 3.55996 13.3333 4.66663V12C13.3333 13.1066 12.44 14 11.3333 14H4C2.89333 14 2 13.1066 2 12V4.66663C2 3.55996 2.89333 2.66663 4 2.66663ZM4 3.33329C3.26667 3.33329 2.66667 3.93329 2.66667 4.66663V9.99996H6V10.3333C6 11.2533 6.74667 12 7.66667 12C8.58667 12 9.33333 11.2533 9.33333 10.3333V9.99996H12.6667V4.66663C12.6667 3.93329 12.0667 3.33329 11.3333 3.33329H4ZM2.66667 12C2.66667 12.7333 3.26667 13.3333 4 13.3333H11.3333C12.0667 13.3333 12.6667 12.7333 12.6667 12V10.6666H9.97333C9.81333 11.8 8.84 12.6666 7.66667 12.6666C6.49333 12.6666 5.52 11.8 5.36 10.6666H2.66667V12Z" fill="#666666"/>
</svg>
