<svg width="17" height="17" viewBox="0 0 17 17" fill="none" xmlns="http://www.w3.org/2000/svg">
<g clip-path="url(#clip0_66_34)">
<path fill-rule="evenodd" clip-rule="evenodd" d="M8.79822 4.49351L12.3338 8.02904L11.3862 8.97656L7.8507 5.44103L8.79822 4.49351Z" fill="#666666"/>
<path fill-rule="evenodd" clip-rule="evenodd" d="M12.5905 2.39779L8.70143 6.28688L7.75391 5.33936L11.643 1.45027C11.9046 1.18862 12.3289 1.18862 12.5905 1.45027C12.8522 1.71192 12.8522 2.13614 12.5905 2.39779Z" fill="#666666"/>
<path fill-rule="evenodd" clip-rule="evenodd" d="M15.4191 5.22628L11.53 9.11537L10.5825 8.16785L14.4716 4.27876C14.7333 4.01711 15.1575 4.01711 15.4191 4.27876C15.6808 4.54041 15.6808 4.96463 15.4191 5.22628Z" fill="#666666"/>
<mask id="mask0_66_34" style="mask-type:alpha" maskUnits="userSpaceOnUse" x="11" y="0" width="6" height="6">
<path d="M11.6289 1.4646L12.5764 0.517077L16.3524 4.29303L15.4049 5.24055L11.6289 1.4646Z" fill="#FF0000"/>
</mask>
<g mask="url(#mask0_66_34)">
<path d="M12.4844 8.16089C11.9572 8.68809 11.1024 8.68809 10.5752 8.16088L8.70136 6.28705C8.17415 5.75984 8.17415 4.90507 8.70136 4.37786L11.6146 1.46458C12.1418 0.937374 12.9966 0.937376 13.5238 1.46458L15.3977 3.33842C15.9249 3.86563 15.9249 4.7204 15.3977 5.2476L12.4844 8.16089Z" fill="#666666"/>
</g>
<path fill-rule="evenodd" clip-rule="evenodd" d="M9.84778 10.6009L6.31224 7.06532L7.25977 6.1178L10.7953 9.65333L9.84778 10.6009Z" fill="#666666"/>
<path fill-rule="evenodd" clip-rule="evenodd" d="M5.98721 12.7643L9.94701 8.80455L10.8945 9.75208L6.93473 13.7119C6.67308 13.9735 6.24886 13.9735 5.98721 13.7119C5.72556 13.4502 5.72556 13.026 5.98721 12.7643Z" fill="#666666"/>
<path fill-rule="evenodd" clip-rule="evenodd" d="M3.1586 9.93598L7.11839 5.97618L8.06592 6.92371L4.10612 10.8835C3.84447 11.1452 3.42025 11.1452 3.1586 10.8835C2.89695 10.6219 2.89695 10.1976 3.1586 9.93598Z" fill="#666666"/>
<mask id="mask1_66_34" style="mask-type:alpha" maskUnits="userSpaceOnUse" x="2" y="9" width="5" height="6">
<path d="M6.92041 13.726L5.97289 14.6735L2.19694 10.8975L3.14446 9.95L6.92041 13.726Z" fill="#FF0000"/>
</mask>
<g mask="url(#mask1_66_34)">
<path d="M6.06494 7.02967C6.59215 6.50246 7.44692 6.50246 7.97413 7.02967L9.84796 8.9035C10.3752 9.43071 10.3752 10.2855 9.84796 10.8127L6.93468 13.726C6.40747 14.2532 5.5527 14.2532 5.02549 13.726L3.15166 11.8521C2.62445 11.3249 2.62445 10.4702 3.15166 9.94295L6.06494 7.02967Z" fill="#666666"/>
</g>
<path fill-rule="evenodd" clip-rule="evenodd" d="M3.99576 13.8426L5.17663 12.6617L5.65039 13.1355L4.46952 14.3164L3.99576 13.8426Z" fill="#666666"/>
<path fill-rule="evenodd" clip-rule="evenodd" d="M1.17456 13.8356L3.76257 11.2476L4.23633 11.7213L1.64832 14.3093L1.17456 13.8356Z" fill="#666666"/>
<path fill-rule="evenodd" clip-rule="evenodd" d="M2.07439 13.8054L3.84216 12.0376L4.31592 12.5114L2.54815 14.2791L2.07439 13.8054Z" fill="#666666"/>
<path fill-rule="evenodd" clip-rule="evenodd" d="M2.78146 13.8053L4.19567 12.3911L4.66943 12.8649L3.25522 14.2791L2.78146 13.8053Z" fill="#666666"/>
<path fill-rule="evenodd" clip-rule="evenodd" d="M3.70066 13.5932L4.54919 12.7446L5.02295 13.2184L4.17442 14.0669L3.70066 13.5932Z" fill="#666666"/>
<mask id="mask2_66_34" style="mask-type:alpha" maskUnits="userSpaceOnUse" x="0" y="11" width="5" height="6">
<path d="M4.94531 13.8478L2.11689 16.6762L0.221839 14.7812L3.05027 11.9527L4.94531 13.8478Z" fill="#FF0000"/>
</mask>
<g mask="url(#mask2_66_34)">
<path fill-rule="evenodd" clip-rule="evenodd" d="M0.693145 13.6456H4.47314V14.3156H0.693145V13.6456Z" fill="#666666"/>
</g>
</g>
<defs>
<clipPath id="clip0_66_34">
<rect width="16" height="16" fill="white" transform="translate(0.25 0.313721)"/>
</clipPath>
</defs>
</svg>
