<svg width="138" height="51" viewBox="0 0 138 51" fill="none" xmlns="http://www.w3.org/2000/svg">
<path d="M14.8322 19.7589L4.17606 19.231C4.11206 19.231 3.96806 19.327 3.74406 19.519C3.52005 19.7109 3.32805 19.8069 3.16805 19.8069C3.00804 19.8069 2.89604 19.7909 2.83204 19.7589C0.944014 19.087 0 18.2711 0 17.3112C0 16.8312 0.272004 16.5912 0.816012 16.5912C1.13602 16.5912 3.20005 16.8472 7.0081 17.3592C10.8482 17.8391 14.9762 18.0791 19.3923 18.0791C23.8084 18.0791 28.0484 17.8391 32.1125 17.3592C36.4325 13.6155 40.7206 11.7437 44.9767 11.7437C46.7367 11.7437 47.6167 12.1597 47.6167 12.9916C47.6167 15.1674 42.6886 16.9752 32.8325 18.4151C29.5684 21.6788 25.6164 27.0062 20.9763 34.3975C19.2483 37.1173 17.5363 39.741 15.8402 42.2688C12.0962 47.8363 9.04013 50.62 6.6721 50.62C5.80809 50.62 5.37608 50.236 5.37608 49.4681C5.37608 48.7322 5.69609 47.8683 6.33609 46.8764C6.9441 45.9164 7.42411 45.4365 7.77612 45.4365C7.80812 45.4365 7.82412 45.4365 7.82412 45.4365C8.24012 45.4365 8.44813 45.6765 8.44813 46.1564L8.25612 47.0683C8.25612 47.2283 8.32012 47.3083 8.44813 47.3083C10.1442 47.3083 13.0242 43.8526 17.0883 36.9413C18.7203 34.1576 20.8003 30.9899 23.3283 27.4382C25.8564 23.8865 28.3044 20.9748 30.6725 18.703C25.1364 19.407 19.8563 19.7589 14.8322 19.7589ZM43.8246 12.6556C40.7526 12.6556 37.5686 14.1275 34.2725 17.0712C36.6405 16.7192 38.6726 16.2873 40.3686 15.7753C42.0966 15.2634 43.3126 14.7834 44.0167 14.3354C44.7207 13.8875 45.0727 13.5035 45.0727 13.1836C45.0727 12.8316 44.6567 12.6556 43.8246 12.6556Z" fill="#1E1E1E" fill-opacity="0.898039"/>
<path d="M31.3666 42.5088C31.1746 42.5088 31.0786 42.4448 31.0786 42.3168C31.0786 42.1568 31.1906 41.9808 31.4146 41.7888C32.4706 40.9249 32.9986 40.141 32.9986 39.4371C32.9986 38.9891 32.5986 38.7331 31.7986 38.6691C30.3586 38.7011 28.6305 39.741 26.6145 41.7888C24.6305 43.8366 23.6385 45.3725 23.6385 46.3964C23.6385 46.7484 23.8305 46.9244 24.2145 46.9244C24.6305 46.9244 25.1745 46.6524 25.8465 46.1084C26.4545 45.7245 27.5905 44.7646 29.2546 43.2287C29.6386 42.8447 30.0066 42.6528 30.3586 42.6528C30.8066 42.6528 31.0306 42.8607 31.0306 43.2767C31.0306 43.4367 30.9826 43.5647 30.8866 43.6607C30.7906 43.7567 30.6146 43.9646 30.3586 44.2846C30.1026 44.5726 29.8786 44.8445 29.6866 45.1005C29.1106 45.9324 28.8226 46.4764 28.8226 46.7324C28.8226 47.3723 29.0786 47.6923 29.5906 47.6923C30.2626 47.6923 31.5266 47.0843 33.3826 45.8685C35.2386 44.6206 36.9347 43.3727 38.4707 42.1248L40.7747 40.301C40.9987 40.141 41.2067 40.061 41.3987 40.061C41.5907 40.061 41.6867 40.173 41.6867 40.397V40.493C39.2227 42.5728 36.6147 44.5246 33.8626 46.3484C31.1426 48.1722 29.3506 49.0841 28.4865 49.0841C27.4625 49.0841 26.9505 48.5402 26.9505 47.4523C26.9505 47.1963 26.9985 46.9563 27.0945 46.7324C27.1905 46.5084 27.2385 46.3484 27.2385 46.2524C27.2385 46.1564 27.2065 46.0924 27.1425 46.0604C27.0465 46.0604 26.4225 46.4924 25.2705 47.3563C24.1505 48.2202 23.1585 48.6522 22.2945 48.6522C21.4624 48.6522 21.0464 48.2042 21.0464 47.3083C21.0464 46.4124 21.6384 45.2125 22.8225 43.7087C24.0385 42.1728 25.6545 40.7809 27.6705 39.5331C29.6866 38.2852 31.6546 37.6612 33.5746 37.6612C34.0226 37.6612 34.3906 37.7732 34.6786 37.9972C34.9986 38.2212 35.1586 38.5731 35.1586 39.0531C35.1586 39.5011 34.6946 40.189 33.7666 41.1169C32.8386 42.0448 32.0386 42.5088 31.3666 42.5088Z" fill="#1E1E1E" fill-opacity="0.898039"/>
<path d="M52.3815 40.301C52.6055 40.141 52.8135 40.061 53.0055 40.061C53.1975 40.061 53.2935 40.173 53.2935 40.397V40.493C49.9655 43.2447 47.4375 45.1645 45.7094 46.2524C43.4694 47.9483 41.5814 48.7962 40.0453 48.7962C38.7013 48.7962 38.0293 47.9963 38.0293 46.3964C38.0293 44.2526 39.4053 41.0849 42.1574 36.8933C44.9414 32.6697 48.0615 28.8781 51.5175 25.5184C54.9736 22.1587 57.5816 20.4789 59.3416 20.4789C60.1416 20.4789 60.5416 20.8308 60.5416 21.5348C60.5416 23.2946 58.4296 26.2063 54.2056 30.2699C50.0135 34.3016 45.8854 37.7412 41.8214 40.589C40.6374 42.8607 40.0453 44.5886 40.0453 45.7725C40.0453 46.9563 40.4614 47.5483 41.2934 47.5483C42.1254 47.5483 43.2134 47.0683 44.5574 46.1084C46.8294 44.7646 49.0375 43.1647 51.1815 41.3089L52.3815 40.301ZM58.1416 22.0147C56.7976 22.0147 54.4136 23.9505 50.9895 27.8222C47.5655 31.6938 44.7334 35.5654 42.4934 39.4371C46.1734 36.8133 49.7735 33.6136 53.2935 29.838C56.8136 26.0303 58.5736 23.5666 58.5736 22.4467C58.5736 22.1587 58.4296 22.0147 58.1416 22.0147Z" fill="#1E1E1E" fill-opacity="0.898039"/>
<path d="M57.3826 42.5088C57.1906 42.5088 57.0946 42.4448 57.0946 42.3168C57.0946 42.1568 57.2066 41.9808 57.4306 41.7888C58.4866 40.9249 59.0146 40.141 59.0146 39.4371C59.0146 38.9891 58.6146 38.7331 57.8146 38.6691C56.3746 38.7011 54.6466 39.741 52.6305 41.7888C50.6465 43.8366 49.6545 45.3725 49.6545 46.3964C49.6545 46.7484 49.8465 46.9244 50.2305 46.9244C50.6465 46.9244 51.1905 46.6524 51.8625 46.1084C52.4705 45.7245 53.6065 44.7646 55.2706 43.2287C55.6546 42.8447 56.0226 42.6528 56.3746 42.6528C56.8226 42.6528 57.0466 42.8607 57.0466 43.2767C57.0466 43.4367 56.9986 43.5647 56.9026 43.6607C56.8066 43.7567 56.6306 43.9646 56.3746 44.2846C56.1186 44.5726 55.8946 44.8445 55.7026 45.1005C55.1266 45.9324 54.8386 46.4764 54.8386 46.7324C54.8386 47.3723 55.0946 47.6923 55.6066 47.6923C56.2786 47.6923 57.5426 47.0843 59.3986 45.8685C61.2547 44.6206 62.9507 43.3727 64.4867 42.1248L66.7907 40.301C67.0147 40.141 67.2227 40.061 67.4148 40.061C67.6068 40.061 67.7028 40.173 67.7028 40.397V40.493C65.2387 42.5728 62.6307 44.5246 59.8786 46.3484C57.1586 48.1722 55.3666 49.0841 54.5026 49.0841C53.4785 49.0841 52.9665 48.5402 52.9665 47.4523C52.9665 47.1963 53.0145 46.9563 53.1105 46.7324C53.2065 46.5084 53.2545 46.3484 53.2545 46.2524C53.2545 46.1564 53.2225 46.0924 53.1585 46.0604C53.0625 46.0604 52.4385 46.4924 51.2865 47.3563C50.1665 48.2202 49.1745 48.6522 48.3105 48.6522C47.4785 48.6522 47.0624 48.2042 47.0624 47.3083C47.0624 46.4124 47.6545 45.2125 48.8385 43.7087C50.0545 42.1728 51.6705 40.7809 53.6865 39.5331C55.7026 38.2852 57.6706 37.6612 59.5906 37.6612C60.0386 37.6612 60.4066 37.7732 60.6947 37.9972C61.0147 38.2212 61.1747 38.5731 61.1747 39.0531C61.1747 39.5011 60.7107 40.189 59.7826 41.1169C58.8546 42.0448 58.0546 42.5088 57.3826 42.5088Z" fill="#1E1E1E" fill-opacity="0.898039"/>
<path d="M71.7734 42.5088C71.5814 42.5088 71.4854 42.4448 71.4854 42.3168C71.4854 42.1568 71.5974 41.9808 71.8214 41.7888C72.8775 40.9249 73.4055 40.141 73.4055 39.4371C73.4055 38.9891 73.0055 38.7331 72.2054 38.6691C70.7654 38.7011 69.0374 39.741 67.0214 41.7888C65.0373 43.8366 64.0453 45.3725 64.0453 46.3964C64.0453 46.7484 64.2373 46.9244 64.6213 46.9244C65.0373 46.9244 65.5813 46.6524 66.2534 46.1084C66.8614 45.7245 67.9974 44.7646 69.6614 43.2287C70.0454 42.8447 70.4134 42.6528 70.7654 42.6528C71.2134 42.6528 71.4374 42.8607 71.4374 43.2767C71.4374 43.4367 71.3894 43.5647 71.2934 43.6607C71.1974 43.7567 71.0214 43.9646 70.7654 44.2846C70.5094 44.5726 70.2854 44.8445 70.0934 45.1005C69.5174 45.9324 69.2294 46.4764 69.2294 46.7324C69.2294 47.3723 69.4854 47.6923 69.9974 47.6923C70.6694 47.6923 71.9334 47.0843 73.7895 45.8685C75.6455 44.6206 77.3415 43.3727 78.8775 42.1248L81.1816 40.301C81.4056 40.141 81.6136 40.061 81.8056 40.061C81.9976 40.061 82.0936 40.173 82.0936 40.397V40.493C79.6296 42.5728 77.0215 44.5246 74.2695 46.3484C71.5494 48.1722 69.7574 49.0841 68.8934 49.0841C67.8694 49.0841 67.3574 48.5402 67.3574 47.4523C67.3574 47.1963 67.4054 46.9563 67.5014 46.7324C67.5974 46.5084 67.6454 46.3484 67.6454 46.2524C67.6454 46.1564 67.6134 46.0924 67.5494 46.0604C67.4534 46.0604 66.8294 46.4924 65.6774 47.3563C64.5573 48.2202 63.5653 48.6522 62.7013 48.6522C61.8693 48.6522 61.4533 48.2042 61.4533 47.3083C61.4533 46.4124 62.0453 45.2125 63.2293 43.7087C64.4453 42.1728 66.0614 40.7809 68.0774 39.5331C70.0934 38.2852 72.0614 37.6612 73.9815 37.6612C74.4295 37.6612 74.7975 37.7732 75.0855 37.9972C75.4055 38.2212 75.5655 38.5731 75.5655 39.0531C75.5655 39.5011 75.1015 40.189 74.1735 41.1169C73.2455 42.0448 72.4455 42.5088 71.7734 42.5088Z" fill="#1E1E1E" fill-opacity="0.898039"/>
<path d="M100.662 40.445C93.9095 46.0764 89.7335 48.8922 88.1334 48.8922C87.2054 48.8922 86.7414 48.5082 86.7414 47.7403C86.7414 46.9723 87.0774 46.0604 87.7494 45.0045C88.4534 43.9486 89.1415 43.0207 89.8135 42.2208C90.5175 41.3889 90.8695 40.8929 90.8695 40.7329C90.8695 40.573 90.8215 40.493 90.7255 40.493C87.7494 42.4768 85.9734 43.6927 85.3974 44.1406C84.8534 44.5886 83.9414 45.3245 82.6614 46.3484C81.4133 47.3723 80.5973 48.0122 80.2133 48.2682C79.8293 48.5242 79.4133 48.6522 78.9653 48.6522C78.5173 48.6522 78.2933 48.4602 78.2933 48.0762C78.2933 47.6283 79.1893 46.2204 80.9813 43.8526C82.7094 41.4849 83.5734 40.157 83.5734 39.869C83.5734 39.805 83.5094 39.773 83.3814 39.773C83.2854 39.773 81.9093 40.7489 79.2533 42.7008L79.0613 41.9808C81.3333 40.157 82.8694 38.9891 83.6694 38.4772C84.4694 37.9652 85.1094 37.7092 85.5894 37.7092C86.1014 37.7092 86.3574 37.9492 86.3574 38.4292C86.3574 38.7491 85.4454 40.061 83.6214 42.3648C81.8293 44.6366 80.9333 45.8685 80.9333 46.0604C80.9333 46.2204 80.9813 46.3004 81.0773 46.3004C81.2053 46.3004 83.0294 45.0205 86.5494 42.4608C90.1015 39.869 92.2615 38.5731 93.0295 38.5731C93.2535 38.5731 93.4615 38.6691 93.6535 38.8611C93.8775 39.0211 93.9895 39.1811 93.9895 39.3411C93.9895 39.725 93.1415 41.0049 91.4455 43.1807C89.7495 45.3245 88.9014 46.5404 88.9014 46.8284C88.9014 47.1163 89.0934 47.2603 89.4775 47.2603C89.8935 47.2603 90.7575 46.8284 92.0695 45.9644C94.4695 44.3966 96.6776 42.7807 98.6936 41.1169L99.7496 40.253C99.9736 40.093 100.182 40.013 100.374 40.013C100.566 40.013 100.662 40.109 100.662 40.301V40.445Z" fill="#1E1E1E" fill-opacity="0.898039"/>
<path d="M101.975 38.109L102.18 38.2254L107.456 31.3833C107.601 31.1758 107.839 31.0377 108.111 30.9972C115.879 29.8867 123.11 20.4483 123.417 20.0443L124.014 19.2543L123.109 19.6782C122.622 19.903 122.059 19.9341 121.576 19.8931C124.657 18.9985 127.438 15.7297 130.426 9.5421L130.914 8.53711L130.04 9.2481C129.547 9.65837 128.85 9.79195 128.327 9.82911C129.141 9.19119 130.563 7.88894 131.541 5.93767C133.315 2.39126 135.715 0.835097 135.741 0.814958L137.02 0L135.544 0.368509C127.913 2.28606 120.039 4.2671 117.245 9.61212C117.298 9.10444 117.427 8.65553 117.627 8.27097L118.283 7.02441L117.237 7.98066C113.64 11.2673 110.026 15.2475 110.102 20.0326C109.873 19.6294 109.707 19.0615 109.596 18.3086L109.5 17.6426L109.14 18.2143C106.254 22.7448 105.992 29.0929 105.972 30.3199C105.971 30.4645 105.932 30.6072 105.86 30.7403L101.979 38.1111L101.975 38.109ZM132.355 2.61491C127.922 5.3219 124.069 8.84365 120.579 12.6464C116.066 17.5569 112.084 22.9258 108.345 28.4521C113.445 18.6461 122.023 7.15595 132.355 2.61491Z" fill="#1E1E1E" fill-opacity="0.898039"/>
</svg>
